<?xml version="1.0" encoding="iso-8859-1"?>
<!-- Uploaded to: SVG Repo, www.svgrepo.com, Generator: SVG Repo Mixer Tools -->
<svg fill="#000000" height="800px" width="800px" version="1.1" id="Capa_1" xmlns="http://www.w3.org/2000/svg" xmlns:xlink="http://www.w3.org/1999/xlink" 
	 viewBox="0 0 413.953 413.953" xml:space="preserve">
<path id="XMLID_283_" d="M170.87,255.635c0,4.971-4.029,9-9,9h-32.514c-4.971,0-9-4.029-9-9s4.029-9,9-9h32.514
	C166.841,246.635,170.87,250.664,170.87,255.635z M319.696,9v395.953c0,4.971-4.029,9-9,9h-84.714c-4.971,0-9-4.029-9-9V151.128
	h-20.016v253.825c0,4.971-4.029,9-9,9h-84.71c-4.971,0-9-4.029-9-9V9c0-4.971,4.029-9,9-9h207.439
	C315.667,0,319.696,4.029,319.696,9z M112.257,70.018h28.65c4.637,0,8.409-3.772,8.409-8.41v-8.993h-37.06V70.018z M301.696,88.018
	h-28.652c-14.563,0-26.409-11.848-26.409-26.41v-8.993h-30.659v37.821h8.591c4.971,0,9,4.029,9,9s-4.029,9-9,9h-17.591
	c-4.971,0-9-4.029-9-9V52.614h-30.659v8.993c0,14.563-11.847,26.41-26.409,26.41h-28.65v307.936h66.71V151.128h-0.758
	c-4.971,0-9-4.029-9-9s4.029-9,9-9h57.537c4.971,0,9,4.029,9,9s-4.029,9-9,9h-0.764v244.825h66.714V88.018z M301.696,52.614h-37.062
	v8.993c0,4.638,3.772,8.41,8.409,8.41h28.652V52.614z M301.696,18H112.257v16.614h94.719h94.721V18z M245.729,255.635
	c0,4.971,4.029,9,9,9h32.511c4.971,0,9-4.029,9-9s-4.029-9-9-9h-32.511C249.759,246.635,245.729,250.664,245.729,255.635z"/>
</svg>