<?xml version="1.0" encoding="iso-8859-1"?>
<!-- Uploaded to: SVG Repo, www.svgrepo.com, Generator: SVG Repo Mixer Tools -->
<svg fill="#000000" height="800px" width="800px" version="1.1" id="Layer_1" xmlns="http://www.w3.org/2000/svg" xmlns:xlink="http://www.w3.org/1999/xlink" 
	 viewBox="0 0 503.602 503.602" xml:space="preserve">
<g>
	<g>
		<g>
			<path d="M359.583,226.622H144.014c-0.789,5.128-1.326,10.299-1.326,15.503v143.973h218.229V242.125
				C360.917,236.921,360.38,231.75,359.583,226.622z M291.747,307.619l-50.361,58.754c-1.662,1.939-4.012,2.938-6.379,2.938
				c-1.93,0-3.878-0.663-5.456-2.031c-3.525-3.013-3.928-8.31-0.915-11.826l38.484-44.897h-48.892c-3.399,0-6.455-2.048-7.756-5.187
				s-0.579-6.74,1.821-9.14l50.361-50.361c3.273-3.282,8.586-3.282,11.868,0c3.273,3.273,3.273,8.586,0,11.868L238.49,293.77h46.886
				c3.273,0,6.253,1.905,7.621,4.885C294.366,301.626,293.879,305.134,291.747,307.619z"/>
			<path d="M142.685,419.668h41.967c4.633,0,8.393,3.752,8.393,8.393c0,4.642-3.76,8.393-8.393,8.393h-41.967v16.787h58.754
				c4.633,0,8.393,3.752,8.393,8.393c0,4.642-3.76,8.393-8.393,8.393h-58.754V473c0,16.871,13.732,30.602,30.611,30.602h157.008
				c16.879,0,30.611-13.732,30.611-30.602v-70.119H142.685V419.668z"/>
			<path d="M348.444,193.225l-16.057-29.444c-13.656-25.029-21.076-53.206-21.705-81.702c9.728-3.819,16.661-13.245,16.661-24.316
				v-7.403h-67.148c-4.633,0-8.393-3.76-8.393-8.393c0-4.642,3.76-8.393,8.393-8.393h67.148v-7.411C327.343,11.734,315.6,0,301.18,0
				h-98.757c-14.428,0-26.162,11.734-26.162,26.162v7.411h33.574c4.633,0,8.393,3.752,8.393,8.393c0,4.633-3.76,8.393-8.393,8.393
				h-33.574v7.403c0,11.071,6.933,20.497,16.661,24.316c-0.63,28.496-8.049,56.673-21.705,81.702l-16.057,29.444
				c-2.896,5.296-5.12,10.895-7.025,16.611h207.326C353.555,204.12,351.331,198.522,348.444,193.225z"/>
		</g>
	</g>
</g>
</svg>